<?xml version="1.0" encoding="utf-8"?>
<!-- Generator: Adobe Illustrator 21.1.0, SVG Export Plug-In . SVG Version: 6.00 Build 0)  -->
<svg version="1.1" xmlns="http://www.w3.org/2000/svg" xmlns:xlink="http://www.w3.org/1999/xlink" x="0px" y="0px"
	 viewBox="0 0 18 17.9" style="enable-background:new 0 0 18 17.9;" xml:space="preserve">
<style type="text/css">
	.st0{display:none;}
	.st1{display:inline;fill:#FFFFFF;stroke:#9D9FA2;stroke-width:0.5;stroke-miterlimit:10;}
	.st2{display:inline;}
	.st3{fill:none;}
	.st4{fill:#109FDA;}
	.st5{clip-path:url(#SVGID_2_);}
	.st6{clip-path:url(#SVGID_4_);fill:#009FDB;}
	.st7{clip-path:url(#SVGID_6_);}
	.st8{clip-path:url(#SVGID_8_);enable-background:new    ;}
	.st9{clip-path:url(#SVGID_10_);}
	.st10{clip-path:url(#SVGID_12_);fill:#009FDB;}
	.st11{clip-path:url(#SVGID_14_);}
	.st12{clip-path:url(#SVGID_16_);fill:#CE518B;}
</style>
<g id="frame" class="st0">
	<rect x="-0.1" y="0" class="st1" width="18" height="18"/>
</g>
<g id="auto_pay__x28_thin_x29_" class="st0">
	<g class="st2">
		<rect x="0.3" y="0.3" class="st3" width="17.4" height="17.4"/>
		<path class="st4" d="M6.8,10.9c0-0.2,0.3-0.3,0.3-0.3c0.2,0.5,0.7,1,1.7,1.1V9.1C7.9,8.9,7,8.5,7,7.4c0-0.9,0.8-1.6,1.8-1.6V5
			c0,0,0.1,0,0.2,0h0c0.1,0,0.2,0,0.2,0v0.8c0.7,0,1.2,0.3,1.5,0.6C10.9,6.5,11,6.7,11,6.9c0,0.2-0.3,0.3-0.3,0.3
			C10.5,6.7,10,6.3,9.2,6.2v2.5c1,0.2,2,0.6,2,1.7c0,0.9-0.8,1.6-1.9,1.7V13c0,0-0.1,0-0.2,0h0c-0.1,0-0.2,0-0.2,0v-0.8
			c-0.8-0.1-1.3-0.3-1.7-0.7C6.9,11.3,6.8,11.1,6.8,10.9z M8.8,6.2C8,6.3,7.4,6.8,7.4,7.4c0,0.7,0.6,1,1.4,1.2V6.2z M10.7,10.5
			c0-0.8-0.7-1.1-1.5-1.3v2.5C10.1,11.7,10.7,11.2,10.7,10.5z M14.7,5.5c-1.9-3.1-6.1-4.1-9.2-2.2c-1.8,1.1-2.9,2.9-3.1,5
			c0,0,0-0.1-0.1-0.1L1.5,6.4c0-0.1-0.1-0.1-0.2-0.1c-0.1,0-0.1,0.1-0.1,0.2l0.8,1.8C2,8.5,2.2,8.7,2.4,8.7c0,0,0.1,0,0.1,0
			c0.1,0,0.3-0.1,0.4-0.2l1.5-1.2c0.1-0.1,0.1-0.2,0-0.3C4.4,7,4.3,7,4.2,7L2.7,8.3c0,0,0,0,0,0c0.2-1.9,1.3-3.6,3-4.7
			c3-1.8,6.9-0.9,8.7,2.1c0.1,0.1,0.2,0.1,0.2,0.1C14.7,5.7,14.7,5.6,14.7,5.5z M16.8,11.5L16,9.7c-0.1-0.2-0.2-0.3-0.4-0.4
			c-0.2,0-0.4,0-0.6,0.1l-1.5,1.2c-0.1,0.1-0.1,0.2,0,0.3c0.1,0.1,0.2,0.1,0.3,0l1.5-1.2c0,0,0,0,0,0c-0.2,1.9-1.3,3.7-3,4.7
			c-1.4,0.9-3.1,1.2-4.8,0.8c-1.6-0.4-3-1.4-3.9-2.8c-0.1-0.1-0.2-0.1-0.2-0.1c-0.1,0.1-0.1,0.2-0.1,0.2c0.9,1.5,2.4,2.6,4.2,3
			c0.5,0.1,1,0.2,1.5,0.2c1.2,0,2.4-0.3,3.5-1c1.7-1.1,2.9-2.9,3.1-5c0,0,0,0.1,0.1,0.1l0.8,1.8c0,0.1,0.1,0.1,0.2,0.1
			c0,0,0.1,0,0.1,0C16.8,11.7,16.9,11.5,16.8,11.5z"/>
	</g>
</g>
<g id="auto_pay__x28_thick_x29_" class="st0">
	<g class="st2">
		<rect x="0.2" y="0.3" class="st3" width="17.4" height="17.4"/>
		<path class="st4" d="M8.3,12.2v0.4c0,0.4,0.2,0.6,0.6,0.6H9c0.4,0,0.5-0.2,0.5-0.6v-0.4c1.1-0.2,1.9-0.9,1.9-1.9
			c0-1.3-1.2-1.6-2.2-1.8C8.5,8.3,7.9,8.2,7.9,7.6c0-0.5,0.5-0.8,1.1-0.8s1.3,0.3,1.7,0.8c0,0,0.5-0.2,0.5-0.7c0-0.5-0.6-1-1.7-1.1
			V5.5C9.5,5,9.4,4.8,9,4.8H8.9C8.5,4.8,8.4,5,8.4,5.5v0.4C7.3,6,6.6,6.7,6.6,7.6c0,1.3,1.1,1.6,2,1.8c0.7,0.2,1.4,0.3,1.4,0.9
			c0,0.5-0.5,0.8-1.2,0.8c-0.8,0-1.5-0.4-1.9-0.9c0,0-0.5,0.3-0.5,0.7C6.5,11.5,7.2,12.1,8.3,12.2z M14.8,5.4l-0.5,0.3
			c-0.1,0.1-0.2,0-0.2-0.1c0,0-0.1-0.1-0.2-0.2C12,2.9,8.5,2.2,5.8,3.9C4.4,4.7,3.5,6,3.1,7.6l0.7,0C4,7.6,4,7.7,3.9,7.8L2.7,9.5
			l0,0.1c-0.1,0.1-0.2,0.1-0.2,0L2,8.9L1.2,7.8c-0.1-0.1,0-0.2,0.1-0.2l0.8,0C2.5,5.7,3.6,4.1,5.3,3c3.2-2,7.3-1.1,9.4,1.9
			c0.1,0.1,0.2,0.2,0.2,0.2C14.9,5.3,14.8,5.4,14.8,5.4z M3.1,12.6l0.5-0.3c0.1-0.1,0.2,0,0.2,0.1c0,0,0.1,0.1,0.2,0.2
			c1.8,2.5,5.4,3.2,8.1,1.6c1.4-0.8,2.3-2.2,2.7-3.7l-0.7,0c-0.1,0-0.2-0.1-0.1-0.2l1.2-1.7l0-0.1c0.1-0.1,0.2-0.1,0.2,0l0.4,0.6
			l0.8,1.1c0.1,0.1,0,0.2-0.1,0.2l-0.8,0c-0.4,1.9-1.5,3.5-3.2,4.5c-3.2,2-7.3,1.1-9.4-1.9c-0.1-0.1-0.2-0.2-0.2-0.2
			C3,12.8,3,12.7,3.1,12.6z"/>
	</g>
</g>
<g id="blue_checkmark">
	<g>
		<defs>
			<path id="SVGID_1_" d="M16.4,2.7c-0.3,0-0.6,0.1-0.8,0.4c-3,2.9-6.1,6.3-9.1,9.3L2.3,8.9C1.8,8.5,1,8.5,0.6,9
				c-0.5,0.5-0.5,1.2,0,1.7c0,0,0.1,0.1,0.2,0.1l5.1,4.1c0.5,0.4,1.2,0.4,1.6-0.1c3.2-3.2,6.7-6.9,9.8-10c0.5-0.5,0.5-1.2,0-1.7
				C17,2.9,16.7,2.7,16.4,2.7"/>
		</defs>
		<clipPath id="SVGID_2_">
			<use xlink:href="#SVGID_1_"  style="overflow:visible;"/>
		</clipPath>
		<g class="st5">
			<defs>
				<rect id="SVGID_3_" x="-1158.6" y="-9726.6" width="1987.2" height="12158.1"/>
			</defs>
			<clipPath id="SVGID_4_">
				<use xlink:href="#SVGID_3_"  style="overflow:visible;"/>
			</clipPath>
			<rect x="-6" y="-3.5" class="st6" width="29.8" height="24.8"/>
		</g>
	</g>
</g>
<g id="red_x" class="st0">
	<g class="st2">
		<defs>
			<path id="SVGID_5_" d="M15.6,17c-0.4,0-0.6-0.1-0.9-0.4L1.4,3.3C0.9,2.8,0.9,2,1.4,1.4c0.5-0.5,1.3-0.5,1.9,0l13.3,13.4
				c0.5,0.5,0.5,1.3,0,1.9C16.3,16.9,16,17,15.6,17z M2.3,17c-0.4,0-0.6-0.1-0.9-0.4c-0.5-0.5-0.5-1.3,0-1.9L14.7,1.4
				c0.5-0.5,1.3-0.5,1.9,0c0.5,0.5,0.5,1.3,0,1.9L3.2,16.6C3,16.9,2.7,17,2.3,17z"/>
		</defs>
		<clipPath id="SVGID_6_">
			<use xlink:href="#SVGID_5_"  style="overflow:visible;"/>
		</clipPath>
		<g class="st7">
			<defs>
				<rect id="SVGID_7_" x="0.8" y="0.7" width="16.3" height="16.6"/>
			</defs>
			<clipPath id="SVGID_8_">
				<use xlink:href="#SVGID_7_"  style="overflow:visible;"/>
			</clipPath>
			<g class="st8">
				<g>
					<defs>
						<rect id="SVGID_9_" x="-15.4" y="-15.8" width="48.8" height="49.7"/>
					</defs>
					<clipPath id="SVGID_10_">
						<use xlink:href="#SVGID_9_"  style="overflow:visible;"/>
					</clipPath>
					<g class="st9">
						<defs>
							<rect id="SVGID_11_" x="0.8" y="0.7" width="16.3" height="16.6"/>
						</defs>
						<clipPath id="SVGID_12_">
							<use xlink:href="#SVGID_11_"  style="overflow:visible;"/>
						</clipPath>
						<rect x="-5.8" y="-5.9" class="st10" width="29.5" height="29.8"/>
					</g>
					<g class="st9">
						<defs>
							<rect id="SVGID_13_" x="-15.4" y="-15.8" width="48.8" height="49.7"/>
						</defs>
						<clipPath id="SVGID_14_">
							<use xlink:href="#SVGID_13_"  style="overflow:visible;"/>
						</clipPath>
						<g class="st11">
							<defs>
								<rect id="SVGID_15_" x="0.8" y="0.7" width="16.3" height="16.6"/>
							</defs>
							<clipPath id="SVGID_16_">
								<use xlink:href="#SVGID_15_"  style="overflow:visible;"/>
							</clipPath>
							<rect x="-22.2" y="-22.7" class="st12" width="62.3" height="63.5"/>
						</g>
					</g>
				</g>
			</g>
		</g>
	</g>
</g>
</svg>
