<?xml version="1.0" encoding="utf-8"?>
<!-- Generator: Adobe Illustrator 24.2.1, SVG Export Plug-In . SVG Version: 6.00 Build 0)  -->
<svg version="1.1" id="Icon__x28_Outline_x29_" xmlns="http://www.w3.org/2000/svg" xmlns:xlink="http://www.w3.org/1999/xlink"
	 x="0px" y="0px" viewBox="0 0 96 96" style="enable-background:new 0 0 96 96;" xml:space="preserve">
<style type="text/css">
	.st0{fill:#009FDB;}
</style>
<g>
	<g>
		<rect x="79" y="72" width="5" height="2"/>
	</g>
	<g>
		<path class="st0" d="M34,15c-4.4,0-8,3.6-8,8s3.6,8,8,8s8-3.6,8-8S38.4,15,34,15z M34,29c-3.3,0-6-2.7-6-6s2.7-6,6-6s6,2.7,6,6
			S37.3,29,34,29z"/>
		<path class="st0" d="M34,65c-4.4,0-8,3.6-8,8s3.6,8,8,8s8-3.6,8-8S38.4,65,34,65z M34,79c-3.3,0-6-2.7-6-6s2.7-6,6-6s6,2.7,6,6
			S37.3,79,34,79z"/>
		<path class="st0" d="M62,40c-4.4,0-8,3.6-8,8s3.6,8,8,8s8-3.6,8-8S66.4,40,62,40z M62,54c-3.3,0-6-2.7-6-6s2.7-6,6-6s6,2.7,6,6
			S65.3,54,62,54z"/>
	</g>
	<g>
		<rect x="12" y="22" width="11" height="2"/>
		<rect x="45" y="22" width="39" height="2"/>
		<rect x="12" y="72" width="11" height="2"/>
		<rect x="45" y="72" width="39" height="2"/>
		<rect x="73" y="47" width="11" height="2"/>
		<rect x="12" y="47" width="39" height="2"/>
	</g>
</g>
</svg>
