<?xml version="1.0" encoding="utf-8"?>
<!-- Generator: Adobe Illustrator 24.2.1, SVG Export Plug-In . SVG Version: 6.00 Build 0)  -->
<svg version="1.1" id="Icon__x28_Outline_x29_" xmlns="http://www.w3.org/2000/svg" xmlns:xlink="http://www.w3.org/1999/xlink"
	 x="0px" y="0px" viewBox="0 0 96 96" style="enable-background:new 0 0 96 96;" xml:space="preserve">
<style type="text/css">
	.st0{fill:#009FDB;}
</style>
<g>
	<g>
		<path class="st0" d="M25.4,37.3c0-0.1,0-0.3,0.1-0.3l6.2-6l-8.5-1.2c-0.1,0-0.2-0.1-0.3-0.2L19,21.7l-3.8,7.7
			c-0.1,0.1-0.2,0.2-0.3,0.2l-8.5,1.2l6.2,6c0.1,0.1,0.1,0.2,0.1,0.3l-1.5,8.5l7.6-4c0.1-0.1,0.2-0.1,0.4,0l7.6,4L25.4,37.3z
			 M20.1,40c-0.7-0.4-1.5-0.4-2.2,0l-4.1,2.1l0.8-4.5c0.1-0.8-0.1-1.6-0.7-2.1l-3.3-3.2l4.5-0.7c0.8-0.1,1.5-0.6,1.8-1.3l2-4.1
			l2,4.1c0.3,0.7,1,1.2,1.8,1.3l4.5,0.7l-3.3,3.2c-0.6,0.5-0.8,1.3-0.7,2.1l0.8,4.5L20.1,40z"/>
		<path class="st0" d="M60.7,30.9l-8.5-1.2c-0.1,0-0.2-0.1-0.3-0.2L48,21.7l-3.8,7.7c-0.1,0.1-0.2,0.2-0.3,0.2l-8.5,1.2l6.2,6
			c0.1,0.1,0.1,0.2,0.1,0.3l-1.5,8.5l7.6-4c0.1-0.1,0.2-0.1,0.4,0l7.6,4l-1.5-8.5c0-0.1,0-0.3,0.1-0.3L60.7,30.9z M52.4,37.7
			l0.8,4.5L49.1,40c-0.7-0.4-1.5-0.4-2.2,0l-4.1,2.1l0.8-4.5c0.1-0.8-0.1-1.6-0.7-2.1l-3.3-3.2l4.5-0.7c0.8-0.1,1.5-0.6,1.8-1.3
			l2-4.1l2,4.1c0.3,0.7,1,1.2,1.8,1.3l4.5,0.7l-3.3,3.2C52.5,36.1,52.3,36.9,52.4,37.7z"/>
		<path class="st0" d="M83.5,37l6.2-6l-8.5-1.2c-0.1,0-0.2-0.1-0.3-0.2L77,21.7l-3.8,7.7c-0.1,0.1-0.2,0.2-0.3,0.2l-8.5,1.2l6.2,6
			c0.1,0.1,0.1,0.2,0.1,0.3l-1.5,8.5l7.6-4c0.1-0.1,0.2-0.1,0.4,0l7.6,4l-1.5-8.5C83.3,37.2,83.4,37.1,83.5,37z M78.1,40
			c-0.7-0.4-1.5-0.4-2.2,0l-4.1,2.1l0.8-4.5c0.1-0.8-0.1-1.6-0.7-2.1l-3.3-3.2l4.5-0.7c0.8-0.1,1.5-0.6,1.8-1.3l2-4.1l2,4.1
			c0.3,0.7,1,1.2,1.8,1.3l4.5,0.7l-3.3,3.2c-0.6,0.5-0.8,1.3-0.7,2.1l0.8,4.5L78.1,40z"/>
		<path class="st0" d="M45.7,58.9l-8.5-1.2c-0.1,0-0.2-0.1-0.3-0.2L33,49.7l-3.8,7.7c-0.1,0.1-0.2,0.2-0.3,0.2l-8.5,1.2l6.2,6
			c0.1,0.1,0.1,0.2,0.1,0.3l-1.5,8.5l7.6-4c0.1-0.1,0.2-0.1,0.4,0l7.6,4l-1.5-8.5c0-0.1,0-0.3,0.1-0.3L45.7,58.9z M37.4,65.7
			l0.8,4.5L34.1,68c-0.7-0.4-1.5-0.4-2.2,0l-4.1,2.1l0.8-4.5c0.1-0.8-0.1-1.6-0.7-2.1l-3.3-3.2l4.5-0.7c0.8-0.1,1.5-0.6,1.8-1.3
			l2-4.1l2,4.1c0.3,0.7,1,1.2,1.8,1.3l4.5,0.7l-3.3,3.2C37.5,64.1,37.3,64.9,37.4,65.7z"/>
	</g>
	<path d="M70.8,73.8l-7.6-4c-0.1-0.1-0.2-0.1-0.4,0l-7.6,4l1.5-8.5c0-0.1,0-0.3-0.1-0.3l-6.2-6l8.5-1.2c0.1,0,0.2-0.1,0.3-0.2
		l3.8-7.7l3.8,7.7c0.1,0.1,0.2,0.2,0.3,0.2l8.5,1.2l-6.2,6c-0.1,0.1-0.1,0.2-0.1,0.3L70.8,73.8z M54.6,60.3l3.3,3.2
		c0.6,0.5,0.8,1.3,0.7,2.1l-0.8,4.5l4.1-2.1c0.7-0.4,1.5-0.4,2.2,0l4.1,2.1l-0.8-4.5c-0.1-0.8,0.1-1.6,0.7-2.1l3.3-3.2l-4.5-0.7
		c-0.8-0.1-1.5-0.6-1.8-1.3l-2-4.1l-2,4.1c-0.3,0.7-1,1.2-1.8,1.3L54.6,60.3z"/>
</g>
</svg>
