<?xml version="1.0" encoding="utf-8"?>
<!-- Generator: Adobe Illustrator 24.1.0, SVG Export Plug-In . SVG Version: 6.00 Build 0)  -->
<svg version="1.1" id="Icon__x28_Outlined_x29_" xmlns="http://www.w3.org/2000/svg" xmlns:xlink="http://www.w3.org/1999/xlink"
	 x="0px" y="0px" viewBox="0 0 96 96" style="enable-background:new 0 0 96 96;" xml:space="preserve">
<style type="text/css">
	.st0{fill:#009FDB;}
</style>
<g>
	<path class="st0" d="M45.6,69.1L45.6,69.1c-0.8-1.1-1.9-1.8-3.2-2c-0.2,0-0.4,0-0.6,0c0.4-1.4,0.2-2.9-0.7-4.2
		c-0.8-1-1.9-1.7-3.1-1.9c-0.2,0-0.4,0-0.6,0c0.4-1.4,0.2-2.9-0.7-4.2c-0.8-1-1.9-1.7-3.1-1.9c-1.3-0.2-2.5,0.1-3.6,0.9l-0.7,0.5
		c0-1.5-0.7-2.9-1.9-3.8c-1.7-1.3-4-1.3-5.7,0l-2.5,1.8c-1.2,0.9-1.9,2.3-1.9,3.9c0,1.5,0.7,2.9,2,3.9L37.9,76c0.9,0.7,2,1,3.1,1
		c1.2,0,2.4-0.4,3.4-1.2l0.1-0.1C46.7,74.2,47.1,71.3,45.6,69.1z M39.4,64.2c0.9,1.2,0.6,3-0.6,3.9l-4.1,3.1L30,67.7l5.5-4.1
		c0.6-0.4,1.3-0.6,2.1-0.5C38.4,63.2,39,63.6,39.4,64.2z M31.1,57.5c0.6-0.4,1.3-0.6,2.1-0.5c0.7,0.1,1.4,0.5,1.8,1.1
		c0.9,1.2,0.6,3-0.6,3.9l0,0c0,0,0,0,0,0l-6,4.5L23.6,63L31.1,57.5z M19.1,58.3c0-0.9,0.4-1.7,1.1-2.2l2.5-1.8
		c0.5-0.4,1.1-0.5,1.7-0.5c0.6,0,1.2,0.2,1.7,0.5c0.7,0.5,1.1,1.3,1.1,2.2c0,0.9-0.4,1.7-1.1,2.2l-4.1,3l0,0l-1.7-1.2
		C19.6,60,19.1,59.2,19.1,58.3z M43.4,74.1L43.4,74.1c-1.4,1.1-3,1.1-4.2,0.2l-2.7-2l3.7-2.7c0.6-0.4,1.3-0.6,2.1-0.5
		c0.7,0.1,1.4,0.5,1.8,1.1l0,0C44.9,71.5,44.6,73.2,43.4,74.1z"/>
	<path class="st0" d="M70.4,19.5l-6,4.4l-18.9,0L33,37.9l0.5,0.7c1.1,1.5,2.7,2.4,4.5,2.7c1.8,0.3,3.7-0.2,5.2-1.4l7.3-5.6l-1.2-1.6
		l-7.3,5.6c-1.1,0.8-2.4,1.2-3.7,1c-1-0.1-1.9-0.6-2.6-1.3L46.3,26l17.8,0l17.1,23.2l-6,4.4l1.2,1.6l13.1-9.6L70.4,19.5z M66,25.2
		l3.9-2.9l16.8,22.8L82.8,48L66,25.2z"/>
	<path d="M40,26v-2l-8.4,0l-6-4.5L6.3,45.7l9.8,7.2l1.2-1.6l-2.7-2L31.8,26L40,26z M9.1,45.3l16.9-23l3.9,2.9L13,48.2L9.1,45.3z"/>
	<path d="M74.1,57.3c-0.2-1.3-0.9-2.4-1.9-3.1L51.1,38.6l-1.2,1.6L71,55.8c0.6,0.4,1,1.1,1.1,1.8c0.1,0.7-0.1,1.5-0.5,2.1
		c-0.9,1.2-2.7,1.5-3.9,0.6l-3.8-2.8L62.7,59l1.9,1.4c0.6,0.4,1,1.1,1.1,1.8c0.1,0.7-0.1,1.5-0.5,2.1c-0.4,0.6-1.1,1-1.8,1.1
		c-0.7,0.1-1.5-0.1-2.1-0.5l-3.8-2.8l0,0l0,0l0,0l-1.2,1.6l1.9,1.4c0.6,0.4,1,1.1,1.1,1.8c0.1,0.7-0.1,1.5-0.5,2.1
		c-0.9,1.2-2.7,1.5-3.9,0.6l-3.8-2.8L50,68.4l1.9,1.4c1.2,0.9,1.5,2.7,0.6,3.9c-0.8,1.1-2.2,1.4-3.4,0.9l-0.8,1.8
		c0.6,0.3,1.3,0.4,2,0.4c1.5,0,2.9-0.7,3.9-1.9c0.7-0.9,1-2,0.9-3c0.5,0.2,1.1,0.3,1.6,0.3c1.5,0,2.9-0.7,3.9-1.9c0.7-0.9,1-2,0.9-3
		c0.5,0.2,1.1,0.3,1.6,0.3c0.2,0,0.5,0,0.7-0.1c1.3-0.2,2.4-0.9,3.1-1.9c0.7-0.9,1-2,0.9-3c0.5,0.2,1.1,0.3,1.6,0.3
		c1.5,0,2.9-0.7,3.9-1.9C74,59.8,74.3,58.6,74.1,57.3z"/>
</g>
</svg>
