<?xml version="1.0" encoding="utf-8"?>
<!-- Generator: Adobe Illustrator 24.2.1, SVG Export Plug-In . SVG Version: 6.00 Build 0)  -->
<svg version="1.1" id="Icon__x28_Outline_x29_" xmlns="http://www.w3.org/2000/svg" xmlns:xlink="http://www.w3.org/1999/xlink"
	 x="0px" y="0px" viewBox="0 0 96 96" style="enable-background:new 0 0 96 96;" xml:space="preserve">
<style type="text/css">
	.st0{fill:#009FDB;}
</style>
<g>
	<g>
		<path d="M52,86h-8c-1.7,0-3-1.3-3-3v-2.3c0-2.6-1.6-4.9-4-5.9l-0.1,0c-2.5-1-5.2-0.5-7,1.3l-1.6,1.6c-1.2,1.2-3.1,1.2-4.2,0
			L18.3,72c-1.2-1.2-1.2-3.1,0-4.2l1.6-1.6c1.8-1.8,2.3-4.6,1.3-7l0-0.1c-1-2.5-3.3-4-5.9-4H13c-1.7,0-3-1.3-3-3v-8c0-1.7,1.3-3,3-3
			h2.3c2.6,0,4.9-1.6,5.9-4l0-0.1c1-2.5,0.5-5.2-1.3-7l-1.6-1.6c-1.2-1.2-1.2-3.1,0-4.2l5.7-5.7c1.2-1.2,3.1-1.2,4.2,0l1.4,1.4
			c1.9,1.9,4.8,2.5,7.4,1.5c2.4-1,4-3.4,4-6V13c0-1.7,1.3-3,3-3h8c1.7,0,3,1.3,3,3v2.3c0,2.6,1.6,4.9,4,5.9l0.1,0
			c2.5,1,5.2,0.5,7-1.3l1.6-1.6c1.2-1.2,3.1-1.2,4.2,0l5.7,5.7c1.2,1.2,1.2,3.1,0,4.2l-1.6,1.6c-1.8,1.8-2.3,4.6-1.3,7l0,0.1
			c1,2.5,3.3,4,5.9,4H83c1.7,0,3,1.3,3,3v8c0,1.7-1.3,3-3,3h-2.3c-2.6,0-4.9,1.6-5.9,4l0,0.1c-1,2.5-0.5,5.2,1.3,7l1.6,1.6
			c1.2,1.2,1.2,3.1,0,4.2L72,77.7c-1.2,1.2-3.1,1.2-4.2,0l-1.6-1.6c-1.8-1.8-4.6-2.3-7-1.3l-0.1,0c-2.5,1-4,3.3-4,5.9V83
			C55,84.7,53.7,86,52,86z M34.3,72.3c1.1,0,2.3,0.2,3.4,0.7l0.1,0c3.2,1.3,5.3,4.3,5.3,7.7V83c0,0.6,0.4,1,1,1h8c0.6,0,1-0.4,1-1
			v-2.3c0-3.4,2.1-6.4,5.3-7.7c3.3-1.4,6.9-0.7,9.3,1.7l1.6,1.6c0.4,0.4,1,0.4,1.4,0l5.7-5.7c0.4-0.4,0.4-1,0-1.4l-1.6-1.6
			c-2.4-2.4-3.1-6-1.7-9.2l0-0.1c1.3-3.2,4.3-5.3,7.7-5.3H83c0.6,0,1-0.4,1-1v-8c0-0.6-0.4-1-1-1h-2.3c-3.4,0-6.4-2.1-7.7-5.3
			c-1.4-3.3-0.7-6.9,1.7-9.3l1.6-1.6c0.4-0.4,0.4-1,0-1.4l-5.7-5.7c-0.4-0.4-1-0.4-1.4,0l-1.6,1.6c-2.4,2.4-6,3.1-9.2,1.7l-0.1,0
			c-3.2-1.3-5.3-4.3-5.3-7.7V13c0-0.6-0.4-1-1-1h-8c-0.6,0-1,0.4-1,1v2.2c0,3.5-2.1,6.5-5.2,7.9c-3.3,1.4-7,0.6-9.6-1.9l-1.4-1.4
			c-0.4-0.4-1-0.4-1.4,0l-5.7,5.7c-0.4,0.4-0.4,1,0,1.4l1.6,1.6c2.4,2.4,3.1,6,1.7,9.2l0,0.1c-1.3,3.2-4.3,5.3-7.7,5.3H13
			c-0.6,0-1,0.4-1,1v8c0,0.6,0.4,1,1,1h2.3c3.4,0,6.4,2.1,7.7,5.3c1.4,3.3,0.7,6.9-1.7,9.3l-1.6,1.6c-0.4,0.4-0.4,1,0,1.4l5.7,5.7
			c0.4,0.4,1,0.4,1.4,0l1.6-1.6C30,73.1,32.1,72.3,34.3,72.3z"/>
	</g>
	<g>
		<path class="st0" d="M48,65c-9.4,0-17-7.6-17-17s7.6-17,17-17s17,7.6,17,17S57.4,65,48,65z M48,33c-8.3,0-15,6.7-15,15
			s6.7,15,15,15s15-6.7,15-15S56.3,33,48,33z"/>
	</g>
</g>
</svg>
