<?xml version="1.0" encoding="utf-8"?>
<!-- Generator: Adobe Illustrator 24.2.1, SVG Export Plug-In . SVG Version: 6.00 Build 0)  -->
<svg version="1.1" id="Icon__x28_Outline_x29_" xmlns="http://www.w3.org/2000/svg" xmlns:xlink="http://www.w3.org/1999/xlink"
	 x="0px" y="0px" viewBox="0 0 96 96" style="enable-background:new 0 0 96 96;" xml:space="preserve">
<style type="text/css">
	.st0{fill:#009FDB;}
</style>
<g>
	<path d="M69.2,84.1c-1.2,0-2.5-0.2-3.7-0.6l0,0c-24.9-8.3-44.7-28.1-53-53c-1.4-4.2-0.3-8.8,2.8-12l4.8-4.8c2.5-2.5,6.5-2.5,9,0
		l8.8,8.8c1.9,1.9,2.4,4.6,1.3,7l-4.1,9.6c3.5,10.1,11.5,18.2,21.7,21.7l9.6-4.1c2.4-1,5.2-0.5,7,1.3l8.8,8.8c2.5,2.5,2.5,6.5,0,9
		l-4.8,4.8C75.2,82.9,72.2,84.1,69.2,84.1z M24.6,13.9c-1.1,0-2.2,0.4-3.1,1.3L16.7,20c-2.6,2.6-3.5,6.4-2.4,10
		c8.1,24.3,27.4,43.6,51.7,51.7l0,0c3.5,1.2,7.3,0.3,10-2.4l4.8-4.8c1.7-1.7,1.7-4.5,0-6.2L72,59.5c-1.3-1.3-3.2-1.6-4.8-0.9
		l-9.9,4.3c-0.2,0.1-0.5,0.1-0.7,0c-11-3.7-19.7-12.4-23.4-23.4c-0.1-0.2-0.1-0.5,0-0.7l4.3-9.9c0.7-1.7,0.3-3.5-0.9-4.8l-8.8-8.8
		C26.9,14.3,25.7,13.9,24.6,13.9z"/>
	<path class="st0" d="M50,31.9v2c6.7,0,12.1,5.4,12.1,12.1h2C64.1,38.2,57.8,31.9,50,31.9z"/>
	<path class="st0" d="M50,20.9v2c12.7,0,23.1,10.3,23.1,23.1h2C75.1,32.2,63.8,20.9,50,20.9z"/>
	<path class="st0" d="M50,10v2c18.7,0,34,15.3,34,34h2C86,26.1,69.9,10,50,10z"/>
</g>
</svg>
