<?xml version="1.0" encoding="utf-8"?>
<!-- Generator: Adobe Illustrator 26.0.3, SVG Export Plug-In . SVG Version: 6.00 Build 0)  -->
<svg version="1.1" id="Icon__x28_Outlined_x29_" xmlns="http://www.w3.org/2000/svg" xmlns:xlink="http://www.w3.org/1999/xlink"
	 x="0px" y="0px" viewBox="0 0 96 96" style="enable-background:new 0 0 96 96;" xml:space="preserve">
<style type="text/css">
	.st0{fill:#009FDB;}
</style>
<path d="M47.95107,10.12793c-20.95605,0-38.00586,17.0498-38.00586,38.00586s17.0498,38.00586,38.00586,38.00586
	s38.00586-17.0498,38.00586-38.00586S68.90712,10.12793,47.95107,10.12793z M47.95107,84.13965
	c-19.85352,0-36.00586-16.15234-36.00586-36.00586s16.15234-36.00586,36.00586-36.00586s36.00586,16.15234,36.00586,36.00586
	S67.80458,84.13965,47.95107,84.13965z"/>
<path class="st0" d="M75.95692,48.12793c0,3.25391-1.26758,6.31348-3.56934,8.61426
	c-2.30078,2.30176-5.36035,3.56934-8.61425,3.56934c-3.25488,0-6.31445-1.26758-8.61523-3.56934L39.34169,40.92676
	c-1.92383-1.92383-4.48145-2.9834-7.20117-2.9834c-2.7207,0-5.27734,1.05957-7.20117,2.9834
	c-3.9707,3.9707-3.9707,10.43066,0,14.40137c1.92383,1.92383,4.48047,2.9834,7.20117,2.9834
	c2.71973,0,5.27734-1.05957,7.20117-2.9834l5.90234-5.90234l1.41406,1.41406l-5.90234,5.90234
	c-2.30176,2.30176-5.36133,3.56934-8.61523,3.56934c-3.25488,0-6.31445-1.26758-8.61523-3.56934
	c-4.75-4.75-4.75-12.47949,0-17.22949c2.30078-2.30176,5.36035-3.56934,8.61523-3.56934c3.25391,0,6.31348,1.26758,8.61523,3.56934
	l7.9082,7.90723l7.9082,7.9082c1.92383,1.92383,4.48047,2.9834,7.20117,2.9834c2.71972,0,5.27636-1.05957,7.20019-2.9834
	s2.9834-4.48047,2.9834-7.2002c0-2.7207-1.05957-5.27734-2.9834-7.20117s-4.48047-2.9834-7.20019-2.9834
	c-2.7207,0-5.27734,1.05957-7.20117,2.9834l-5.90234,5.90234l-1.41406-1.41406l5.90234-5.90234
	c2.30078-2.30176,5.36035-3.56934,8.61523-3.56934c3.2539,0,6.31347,1.26758,8.61425,3.56934
	C74.68935,41.81348,75.95692,44.87305,75.95692,48.12793z"/>
</svg>
