<svg enable-background="new 0 0 96 96" viewBox="0 0 96 96" xmlns="http://www.w3.org/2000/svg"><path d="m48 10c-21 0-38 17-38 38s17 38 38 38c4.8 0 9.5-.9 14-2.7l-.7-1.9c-4.3 1.8-8.7 2.6-13.3 2.6-19.9 0-36-16.1-36-36s16.1-36 36-36 36 16.1 36 36c0 4-.7 7.9-1.9 11.7l1.9.6c1.4-4 2-8.1 2-12.3 0-21-17-38-38-38z"/><path d="m47 30v18l10.2 10.2 1.4-1.4-9.6-9.6v-17.2z"/><path d="m76.1 73h-6.2c-2.2 0-4-1.8-4-4s1.8-4 4-4h11.1v-2h-7v-5h-2v5h-2.1c-3.3 0-6 2.7-6 6s2.7 6 6 6h6.2c2.2 0 4 1.8 4 4s-1.8 4-4 4h-11.1v2h7v5h2v-5h2.1c3.3 0 6-2.7 6-6s-2.7-6-6-6z" fill="#009fdb"/></svg>