<?xml version="1.0" encoding="utf-8"?>
<!-- Generator: Adobe Illustrator 24.1.2, SVG Export Plug-In . SVG Version: 6.00 Build 0)  -->
<svg version="1.1" id="Icon__x28_Outline_x29_" xmlns="http://www.w3.org/2000/svg" xmlns:xlink="http://www.w3.org/1999/xlink"
	 x="0px" y="0px" viewBox="0 0 96 96" style="enable-background:new 0 0 96 96;" xml:space="preserve">
<style type="text/css">
	.st0{fill:#009FDB;}
</style>
<g>
	<g>
		<path d="M75,86.1l-27-15.6L21,86.1V16c0-3.31,2.69-6,6-6h42c3.31,0,6,2.69,6,6V86.1z M48,68.2l25,14.44V16c0-2.21-1.79-4-4-4H27
			c-2.21,0-4,1.79-4,4v66.64L48,68.2z"/>
	</g>
	<g>
		<path class="st0" d="M57.24,55.1L48,49.97l-9.24,5.13l1.97-10.5l-7.66-7.37l10.43-1.3l4.5-9.77l4.5,9.77l10.43,1.3l-7.66,7.37
			L57.24,55.1z M48,47.69l6.49,3.6l-1.39-7.38l5.42-5.22l-7.38-0.92L48,30.93l-3.15,6.84l-7.38,0.92l5.42,5.22l-1.39,7.38L48,47.69z
			"/>
	</g>
</g>
</svg>
