<?xml version="1.0" encoding="utf-8"?>
<!-- Generator: Adobe Illustrator 24.2.1, SVG Export Plug-In . SVG Version: 6.00 Build 0)  -->
<svg version="1.1" id="Icon__x28_Outline_x29_" xmlns="http://www.w3.org/2000/svg" xmlns:xlink="http://www.w3.org/1999/xlink"
	 x="0px" y="0px" viewBox="0 0 96 96" style="enable-background:new 0 0 96 96;" xml:space="preserve">
<style type="text/css">
	.st0{fill:#009FDB;}
</style>
<g>
	<g>
		<g>
			<path d="M48,86l-0.2-0.1c-0.4-0.1-36.1-9.3-36.1-55v-0.6L48,10.1l36.3,20.3V31c0,23.8-9.8,37.5-18,44.8
				c-8.9,7.9-17.7,10.1-18.1,10.2L48,86z M13.7,31.5c0.1,12.7,3.2,30.2,17.3,42.6c7.8,6.9,15.6,9.3,17.1,9.7
				c3-0.9,34-10.7,34.3-52.4L48,12.4L13.7,31.5z"/>
		</g>
	</g>
	<g>
		<polygon class="st0" points="42,61.4 29.3,48.7 30.7,47.3 42,58.6 65.3,35.3 66.7,36.7 		"/>
	</g>
</g>
</svg>
